<svg width="11" height="10" viewBox="0 0 11 10" fill="none" xmlns="http://www.w3.org/2000/svg">
<path fill-rule="evenodd" clip-rule="evenodd" d="M9.41666 5.00001C9.41666 7.3012 7.55118 9.16668 5.24999 9.16668C2.94881 9.16668 1.08333 7.3012 1.08333 5.00001C1.08333 2.69882 2.94881 0.833344 5.24999 0.833344C7.55118 0.833344 9.41666 2.69882 9.41666 5.00001ZM6.9293 3.73737C7.05134 3.85941 7.05134 4.05728 6.9293 4.17931L4.84597 6.26265C4.72393 6.38469 4.52606 6.38469 4.40402 6.26265L3.57069 5.42931C3.44865 5.30728 3.44865 5.10941 3.57069 4.98737C3.69273 4.86533 3.89059 4.86533 4.01263 4.98737L4.62499 5.59973L5.55618 4.66855L6.48736 3.73737C6.6094 3.61533 6.80726 3.61533 6.9293 3.73737Z" fill="#008236"/>
</svg>
