<svg width="16" height="16" viewBox="0 0 16 16" fill="none" xmlns="http://www.w3.org/2000/svg">
<path fill-rule="evenodd" clip-rule="evenodd" d="M4.49967 5.3335C4.49967 3.4005 6.06668 1.8335 7.99967 1.8335C9.62985 1.8335 11.0009 2.94844 11.3894 4.45813C11.4583 4.72555 11.7309 4.88655 11.9983 4.81771C12.2657 4.74888 12.4267 4.47629 12.3579 4.20887C11.8584 2.26809 10.0972 0.833496 7.99967 0.833496C5.51439 0.833496 3.49967 2.84821 3.49967 5.3335V6.70324C2.7565 6.75874 2.27255 6.89886 1.91879 7.25262C1.33301 7.8384 1.33301 8.78121 1.33301 10.6668C1.33301 12.5524 1.33301 13.4953 1.91879 14.081C2.50458 14.6668 3.44739 14.6668 5.33301 14.6668H10.6663C12.552 14.6668 13.4948 14.6668 14.0806 14.081C14.6663 13.4953 14.6663 12.5524 14.6663 10.6668C14.6663 8.78121 14.6663 7.8384 14.0806 7.25262C13.4948 6.66683 12.552 6.66683 10.6663 6.66683H5.33301C5.032 6.66683 4.75502 6.66683 4.49967 6.66921V5.3335ZM5.33301 11.3335C5.7012 11.3335 5.99967 11.035 5.99967 10.6668C5.99967 10.2986 5.7012 10.0002 5.33301 10.0002C4.96482 10.0002 4.66634 10.2986 4.66634 10.6668C4.66634 11.035 4.96482 11.3335 5.33301 11.3335ZM7.99967 11.3335C8.36786 11.3335 8.66634 11.035 8.66634 10.6668C8.66634 10.2986 8.36786 10.0002 7.99967 10.0002C7.63148 10.0002 7.33301 10.2986 7.33301 10.6668C7.33301 11.035 7.63148 11.3335 7.99967 11.3335ZM11.333 10.6668C11.333 11.035 11.0345 11.3335 10.6663 11.3335C10.2982 11.3335 9.99967 11.035 9.99967 10.6668C9.99967 10.2986 10.2982 10.0002 10.6663 10.0002C11.0345 10.0002 11.333 10.2986 11.333 10.6668Z" fill="#1C274C" fill-opacity="0.7"/>
</svg>
